STARTFONT 2.1
FONT -Sony-Fixed-Medium-R-Normal--24-170-100-100-C-120-ISO8859-1
SIZE 24 100 100
FONTBOUNDINGBOX 12 24 0 -2

STARTPROPERTIES 22
FONTNAME_REGISTRY ""
FOUNDRY "Sony"
FAMILY_NAME "Fixed"
WEIGHT_NAME "Medium"
SLANT "R"
SETWIDTH_NAME "Normal"
ADD_STYLE_NAME ""
PIXEL_SIZE 24
POINT_SIZE 170
RESOLUTION_X 100
RESOLUTION_Y 100
SPACING "C"
AVERAGE_WIDTH 120
CHARSET_REGISTRY "ISO8859"
CHARSET_ENCODING "1"
COPYRIGHT "Copyright (c) 1987, 1988 Sony Corp."
WEIGHT 10
X_HEIGHT 22
QUAD_WIDTH 12
DEFAULT_CHAR 32
FONT_DESCENT 2
FONT_ASCENT 22
ENDPROPERTIES

CHARS 221

STARTCHAR C001
ENCODING 1
SWIDTH 508 0
DWIDTH 12 0
BBX 12 24 0 -2
BITMAP
0400
0400
0E00
0E00
1F00
1F00
3F80
3F80
7FC0
7FC0
FFE0
7FC0
7FC0
3F80
3F80
1F00
1F00
0E00
0E00
0400
0400
0000
0000
0000
ENDCHAR

STARTCHAR C002
ENCODING 2
SWIDTH 508 0
DWIDTH 12 0
BBX 12 24 0 -2
BITMAP
C630
C630
C630
30C0
30C0
30C0
C630
C630
C630
30C0
30C0
30C0
C630
C630
C630
30C0
30C0
30C0
C630
C630
C630
0000
0000
0000
ENDCHAR

STARTCHAR C003
ENCODING 3
SWIDTH 508 0
DWIDTH 12 0
BBX 12 24 0 -2
BITMAP
0000
0000
C600
C600
C600
C600
FE00
C600
C600
C600
C600
0000
0000
3FC0
0600
0600
0600
0600
0600
0600
0600
0000
0000
0000
ENDCHAR

STARTCHAR C004
ENCODING 4
SWIDTH 508 0
DWIDTH 12 0
BBX 12 24 0 -2
BITMAP
0000
0000
FE00
C000
C000
C000
FC00
C000
C000
C000
C000
0000
1FC0
1800
1800
1800
1F80
1800
1800
1800
1800
0000
0000
0000
ENDCHAR

STARTCHAR C005
ENCODING 5
SWIDTH 508 0
DWIDTH 12 0
BBX 12 24 0 -2
BITMAP
0000
0000
3C00
6600
C600
C000
C000
C000
C000
6600
3C00
0000
1F80
18C0
18C0
18C0
1F80
1900
1980
18C0
18C0
0000
0000
0000
ENDCHAR

STARTCHAR C006
ENCODING 6
SWIDTH 508 0
DWIDTH 12 0
BBX 12 24 0 -2
BITMAP
0000
0000
C000
C000
C000
C000
C000
C000
C000
C000
FE00
0000
1FC0
1800
1800
1800
1F80
1800
1800
1800
1800
0000
0000
0000
ENDCHAR

STARTCHAR C007
ENCODING 7
SWIDTH 508 0
DWIDTH 12 0
BBX 12 24 0 -2
BITMAP
0000
0000
0000
0000
0E00
1B00
3180
3180
1B00
0E00
0000
0000
0000
0000
0000
0000
0000
0000
0000
0000
0000
0000
0000
0000
ENDCHAR

STARTCHAR C010
ENCODING 8
SWIDTH 508 0
DWIDTH 12 0
BBX 12 24 0 -2
BITMAP
0000
0000
0000
0C00
0C00
0C00
0C00
0C00
0C00
FFC0
FFC0
0C00
0C00
0C00
0C00
0C00
0C00
0000
FFC0
FFC0
0000
0000
0000
0000
ENDCHAR

STARTCHAR C011
ENCODING 9
SWIDTH 508 0
DWIDTH 12 0
BBX 12 24 0 -2
BITMAP
0000
0000
E300
E300
D300
D300
CB00
CB00
C700
C700
C300
0000
1800
1800
1800
1800
1800
1800
1800
1800
1FC0
0000
0000
0000
ENDCHAR

STARTCHAR C012
ENCODING 10
SWIDTH 508 0
DWIDTH 12 0
BBX 12 24 0 -2
BITMAP
0000
0000
C180
C180
6300
6300
3600
3600
1C00
1C00
0800
0000
0000
3FC0
0600
0600
0600
0600
0600
0600
0600
0000
0000
0000
ENDCHAR

STARTCHAR C013
ENCODING 11
SWIDTH 508 0
DWIDTH 12 0
BBX 12 24 0 -2
BITMAP
0400
0400
0400
0400
0400
0400
0400
0400
0400
0400
0400
0400
FC00
0000
0000
0000
0000
0000
0000
0000
0000
0000
0000
0000
ENDCHAR

STARTCHAR C014
ENCODING 12
SWIDTH 508 0
DWIDTH 12 0
BBX 12 24 0 -2
BITMAP
0000
0000
0000
0000
0000
0000
0000
0000
0000
0000
0000
0000
FC00
0400
0400
0400
0400
0400
0400
0400
0400
0400
0400
0400
ENDCHAR

STARTCHAR C015
ENCODING 13
SWIDTH 508 0
DWIDTH 12 0
BBX 12 24 0 -2
BITMAP
0000
0000
0000
0000
0000
0000
0000
0000
0000
0000
0000
0000
07F0
0400
0400
0400
0400
0400
0400
0400
0400
0400
0400
0400
ENDCHAR

STARTCHAR C016
ENCODING 14
SWIDTH 508 0
DWIDTH 12 0
BBX 12 24 0 -2
BITMAP
0400
0400
0400
0400
0400
0400
0400
0400
0400
0400
0400
0400
07F0
0000
0000
0000
0000
0000
0000
0000
0000
0000
0000
0000
ENDCHAR

STARTCHAR C017
ENCODING 15
SWIDTH 508 0
DWIDTH 12 0
BBX 12 24 0 -2
BITMAP
0400
0400
0400
0400
0400
0400
0400
0400
0400
0400
0400
0400
FFF0
0400
0400
0400
0400
0400
0400
0400
0400
0400
0400
0400
ENDCHAR

STARTCHAR C020
ENCODING 16
SWIDTH 508 0
DWIDTH 12 0
BBX 12 24 0 -2
BITMAP
0000
0000
FFF0
0000
0000
0000
0000
0000
0000
0000
0000
0000
0000
0000
0000
0000
0000
0000
0000
0000
0000
0000
0000
0000
ENDCHAR

STARTCHAR C021
ENCODING 17
SWIDTH 508 0
DWIDTH 12 0
BBX 12 24 0 -2
BITMAP
0000
0000
0000
0000
0000
0000
0000
FFF0
0000
0000
0000
0000
0000
0000
0000
0000
0000
0000
0000
0000
0000
0000
0000
0000
ENDCHAR

STARTCHAR C022
ENCODING 18
SWIDTH 508 0
DWIDTH 12 0
BBX 12 24 0 -2
BITMAP
0000
0000
0000
0000
0000
0000
0000
0000
0000
0000
0000
0000
FFF0
0000
0000
0000
0000
0000
0000
0000
0000
0000
0000
0000
ENDCHAR

STARTCHAR C023
ENCODING 19
SWIDTH 508 0
DWIDTH 12 0
BBX 12 24 0 -2
BITMAP
0000
0000
0000
0000
0000
0000
0000
0000
0000
0000
0000
0000
0000
0000
0000
0000
0000
FFF0
0000
0000
0000
0000
0000
0000
ENDCHAR

STARTCHAR C024
ENCODING 20
SWIDTH 508 0
DWIDTH 12 0
BBX 12 24 0 -2
BITMAP
0000
0000
0000
0000
0000
0000
0000
0000
0000
0000
0000
0000
0000
0000
0000
0000
0000
0000
0000
0000
0000
0000
FFF0
0000
ENDCHAR

STARTCHAR C025
ENCODING 21
SWIDTH 508 0
DWIDTH 12 0
BBX 12 24 0 -2
BITMAP
0400
0400
0400
0400
0400
0400
0400
0400
0400
0400
0400
0400
07F0
0400
0400
0400
0400
0400
0400
0400
0400
0400
0400
0400
ENDCHAR

STARTCHAR C026
ENCODING 22
SWIDTH 508 0
DWIDTH 12 0
BBX 12 24 0 -2
BITMAP
0400
0400
0400
0400
0400
0400
0400
0400
0400
0400
0400
0400
FC00
0400
0400
0400
0400
0400
0400
0400
0400
0400
0400
0400
ENDCHAR

STARTCHAR C027
ENCODING 23
SWIDTH 508 0
DWIDTH 12 0
BBX 12 24 0 -2
BITMAP
0400
0400
0400
0400
0400
0400
0400
0400
0400
0400
0400
0400
FFF0
0000
0000
0000
0000
0000
0000
0000
0000
0000
0000
0000
ENDCHAR

STARTCHAR C030
ENCODING 24
SWIDTH 508 0
DWIDTH 12 0
BBX 12 24 0 -2
BITMAP
0000
0000
0000
0000
0000
0000
0000
0000
0000
0000
0000
0000
FFF0
0400
0400
0400
0400
0400
0400
0400
0400
0400
0400
0400
ENDCHAR

STARTCHAR C031
ENCODING 25
SWIDTH 508 0
DWIDTH 12 0
BBX 12 24 0 -2
BITMAP
0400
0400
0400
0400
0400
0400
0400
0400
0400
0400
0400
0400
0400
0400
0400
0400
0400
0400
0400
0400
0400
0400
0400
0400
ENDCHAR

STARTCHAR C032
ENCODING 26
SWIDTH 508 0
DWIDTH 12 0
BBX 12 24 0 -2
BITMAP
0000
0000
0000
0000
0000
0000
0000
0040
00C0
0380
0E00
3800
E000
3800
0E00
0380
00C0
0040
FFC0
0000
FFC0
0000
0000
0000
ENDCHAR

STARTCHAR C033
ENCODING 27
SWIDTH 508 0
DWIDTH 12 0
BBX 12 24 0 -2
BITMAP
0000
0000
0000
0000
0000
0000
0000
8000
C000
7000
1C00
0700
01C0
0700
1C00
7000
C000
8000
FFC0
0000
FFC0
0000
0000
0000
ENDCHAR

STARTCHAR C034
ENCODING 28
SWIDTH 508 0
DWIDTH 12 0
BBX 12 24 0 -2
BITMAP
0000
0000
0000
0000
0000
0000
0000
0000
0000
0000
0000
FFE0
3180
3180
3180
3180
3180
7180
6180
C180
C180
0000
0000
0000
ENDCHAR

STARTCHAR C035
ENCODING 29
SWIDTH 508 0
DWIDTH 12 0
BBX 12 24 0 -2
BITMAP
0000
0000
0000
0000
0000
0000
0000
00C0
0180
0100
0200
FFC0
0400
0C00
0800
FFC0
1000
2000
6000
C000
0000
0000
0000
0000
ENDCHAR

STARTCHAR C036
ENCODING 30
SWIDTH 508 0
DWIDTH 12 0
BBX 12 24 0 -2
BITMAP
0000
0000
0000
0000
0000
0000
0000
0380
0440
0C60
0C60
0C00
0C00
4C00
7FC0
0C00
0C00
0C00
3F80
6CE0
6CE0
3800
0000
0000
ENDCHAR

STARTCHAR C037
ENCODING 31
SWIDTH 508 0
DWIDTH 12 0
BBX 12 24 0 -2
BITMAP
0000
0000
0000
0000
0000
0000
0000
0000
0000
0000
0000
0000
0C00
0C00
0000
0000
0000
0000
0000
0000
0000
0000
0000
0000
ENDCHAR

STARTCHAR C040
ENCODING 32
SWIDTH 508 0
DWIDTH 12 0
BBX 12 24 0 -2
BITMAP
0000
0000
0000
0000
0000
0000
0000
0000
0000
0000
0000
0000
0000
0000
0000
0000
0000
0000
0000
0000
0000
0000
0000
0000
ENDCHAR

STARTCHAR !
ENCODING 33
SWIDTH 508 0
DWIDTH 12 0
BBX 12 24 0 -2
BITMAP
0000
0000
0E00
0E00
0E00
0E00
0E00
0E00
0E00
0E00
0E00
0400
0400
0400
0400
0400
0000
0000
0E00
0E00
0E00
0000
0000
0000
ENDCHAR

STARTCHAR "
ENCODING 34
SWIDTH 508 0
DWIDTH 12 0
BBX 12 24 0 -2
BITMAP
7380
7380
3180
3180
2100
4200
0000
0000
0000
0000
0000
0000
0000
0000
0000
0000
0000
0000
0000
0000
0000
0000
0000
0000
ENDCHAR

STARTCHAR #
ENCODING 35
SWIDTH 508 0
DWIDTH 12 0
BBX 12 24 0 -2
BITMAP
0000
0880
0880
0880
0880
0880
0880
7FE0
7FE0
1100
1100
1100
1100
1100
1100
FFC0
FFC0
2200
2200
2200
2200
2200
2200
0000
ENDCHAR

STARTCHAR $
ENCODING 36
SWIDTH 508 0
DWIDTH 12 0
BBX 12 24 0 -2
BITMAP
0000
0400
0400
1F00
64C0
C460
C460
C400
C400
E400
7C00
1F00
07C0
04E0
0460
0460
0460
C460
C460
64C0
1F00
0400
0400
0000
ENDCHAR

STARTCHAR %
ENCODING 37
SWIDTH 508 0
DWIDTH 12 0
BBX 12 24 0 -2
BITMAP
0000
7820
CC20
CC40
CC40
CC80
CC80
7900
0100
0200
0200
0400
0400
0800
0800
1000
13C0
2660
2660
4660
4660
8660
83C0
0000
ENDCHAR

STARTCHAR &
ENCODING 38
SWIDTH 508 0
DWIDTH 12 0
BBX 12 24 0 -2
BITMAP
0000
0000
1E00
2100
6180
6180
6180
6300
6600
3400
1800
1800
2C00
4400
C660
C320
C160
C1C0
C080
61C0
3F60
0000
0000
0000
ENDCHAR

STARTCHAR '
ENCODING 39
SWIDTH 508 0
DWIDTH 12 0
BBX 12 24 0 -2
BITMAP
1C00
1C00
0C00
0C00
0800
1000
0000
0000
0000
0000
0000
0000
0000
0000
0000
0000
0000
0000
0000
0000
0000
0000
0000
0000
ENDCHAR

STARTCHAR (
ENCODING 40
SWIDTH 508 0
DWIDTH 12 0
BBX 12 24 0 -2
BITMAP
0040
0080
0180
0100
0300
0200
0600
0600
0400
0C00
0C00
0C00
0C00
0C00
0C00
0400
0600
0600
0200
0300
0100
0180
0080
0040
ENDCHAR

STARTCHAR )
ENCODING 41
SWIDTH 508 0
DWIDTH 12 0
BBX 12 24 0 -2
BITMAP
4000
2000
3000
1000
1800
0800
0C00
0C00
0400
0600
0600
0600
0600
0600
0600
0400
0C00
0C00
0800
1800
1000
3000
2000
4000
ENDCHAR

STARTCHAR *
ENCODING 42
SWIDTH 508 0
DWIDTH 12 0
BBX 12 24 0 -2
BITMAP
0000
0000
0000
0000
0000
0000
0C00
0C00
CCC0
EDC0
3F00
0C00
0C00
3F00
EDC0
CCC0
0C00
0C00
0000
0000
0000
0000
0000
0000
ENDCHAR

STARTCHAR +
ENCODING 43
SWIDTH 508 0
DWIDTH 12 0
BBX 12 24 0 -2
BITMAP
0000
0000
0000
0000
0000
0600
0600
0600
0600
0600
0600
7FE0
7FE0
0600
0600
0600
0600
0600
0600
0000
0000
0000
0000
0000
ENDCHAR

STARTCHAR ,
ENCODING 44
SWIDTH 508 0
DWIDTH 12 0
BBX 12 24 0 -2
BITMAP
0000
0000
0000
0000
0000
0000
0000
0000
0000
0000
0000
0000
0000
0000
0000
0000
0000
0000
1C00
1C00
0C00
0C00
0800
1000
ENDCHAR

STARTCHAR -
ENCODING 45
SWIDTH 508 0
DWIDTH 12 0
BBX 12 24 0 -2
BITMAP
0000
0000
0000
0000
0000
0000
0000
0000
0000
0000
0000
FFE0
FFE0
0000
0000
0000
0000
0000
0000
0000
0000
0000
0000
0000
ENDCHAR

STARTCHAR .
ENCODING 46
SWIDTH 508 0
DWIDTH 12 0
BBX 12 24 0 -2
BITMAP
0000
0000
0000
0000
0000
0000
0000
0000
0000
0000
0000
0000
0000
0000
0000
0000
0000
0000
1C00
1C00
1C00
0000
0000
0000
ENDCHAR

STARTCHAR /
ENCODING 47
SWIDTH 508 0
DWIDTH 12 0
BBX 12 24 0 -2
BITMAP
0000
0020
0060
0040
00C0
0080
0180
0100
0300
0200
0600
0400
0C00
0800
1800
1000
3000
2000
6000
4000
C000
8000
8000
0000
ENDCHAR

STARTCHAR 0
ENCODING 48
SWIDTH 508 0
DWIDTH 12 0
BBX 12 24 0 -2
BITMAP
0000
0000
0E00
1B00
3180
2080
60C0
4040
C060
C060
C060
C060
C060
C060
C060
C060
4040
60C0
2080
3180
1B00
0E00
0000
0000
ENDCHAR

STARTCHAR 1
ENCODING 49
SWIDTH 508 0
DWIDTH 12 0
BBX 12 24 0 -2
BITMAP
0000
0000
0600
0E00
1E00
7E00
0600
0600
0600
0600
0600
0600
0600
0600
0600
0600
0600
0600
0600
0600
0600
3FC0
0000
0000
ENDCHAR

STARTCHAR 2
ENCODING 50
SWIDTH 508 0
DWIDTH 12 0
BBX 12 24 0 -2
BITMAP
0000
0000
0E00
3180
60C0
4060
8060
0060
0060
00C0
00C0
0180
0300
0200
0400
0800
1000
2020
4020
4060
FFE0
FFE0
0000
0000
ENDCHAR

STARTCHAR 3
ENCODING 51
SWIDTH 508 0
DWIDTH 12 0
BBX 12 24 0 -2
BITMAP
0000
0000
3E00
6380
8180
00C0
00C0
00C0
0080
0100
1E00
3F80
01C0
00E0
0060
0060
0060
0060
00C0
0180
0700
F800
0000
0000
ENDCHAR

STARTCHAR 4
ENCODING 52
SWIDTH 508 0
DWIDTH 12 0
BBX 12 24 0 -2
BITMAP
0000
0000
0180
0180
0380
0380
0580
0580
0980
0980
1180
1180
2180
2180
4180
4180
FFE0
0180
0180
0180
0180
07E0
0000
0000
ENDCHAR

STARTCHAR 5
ENCODING 53
SWIDTH 508 0
DWIDTH 12 0
BBX 12 24 0 -2
BITMAP
0000
0000
7FE0
7FC0
4000
4000
4000
4000
4000
5F00
7180
60C0
4060
0060
0060
0060
0060
0060
00C0
00C0
0380
7C00
0000
0000
ENDCHAR

STARTCHAR 6
ENCODING 54
SWIDTH 508 0
DWIDTH 12 0
BBX 12 24 0 -2
BITMAP
0000
0000
0380
0C00
1000
3000
6000
6000
C000
C000
CF00
F0C0
C060
C060
C060
C060
C060
C060
60C0
60C0
3180
0E00
0000
0000
ENDCHAR

STARTCHAR 7
ENCODING 55
SWIDTH 508 0
DWIDTH 12 0
BBX 12 24 0 -2
BITMAP
0000
0000
FFE0
FFE0
C020
8040
8080
0080
0100
0100
0200
0200
0600
0600
0400
0C00
0C00
0C00
0C00
0C00
0C00
0C00
0000
0000
ENDCHAR

STARTCHAR 8
ENCODING 56
SWIDTH 508 0
DWIDTH 12 0
BBX 12 24 0 -2
BITMAP
0000
0000
0E00
3180
2080
60C0
60C0
60C0
60C0
3080
3900
1E00
1F00
23C0
40C0
C060
C060
C060
C060
4040
60C0
1F00
0000
0000
ENDCHAR

STARTCHAR 9
ENCODING 57
SWIDTH 508 0
DWIDTH 12 0
BBX 12 24 0 -2
BITMAP
0000
0000
0E00
3180
60C0
60C0
C060
C060
C060
C060
C060
4060
61E0
1E60
0060
0060
00C0
00C0
0180
0100
0600
3800
0000
0000
ENDCHAR

STARTCHAR :
ENCODING 58
SWIDTH 508 0
DWIDTH 12 0
BBX 12 24 0 -2
BITMAP
0000
0000
0000
0000
0000
0000
0000
0000
0E00
0E00
0E00
0000
0000
0000
0000
0000
0000
0000
0E00
0E00
0E00
0000
0000
0000
ENDCHAR

STARTCHAR ;
ENCODING 59
SWIDTH 508 0
DWIDTH 12 0
BBX 12 24 0 -2
BITMAP
0000
0000
0000
0000
0000
0000
0000
0000
0E00
0E00
0E00
0000
0000
0000
0000
0000
0000
0000
0E00
0E00
0600
0600
0400
0800
ENDCHAR

STARTCHAR <
ENCODING 60
SWIDTH 508 0
DWIDTH 12 0
BBX 12 24 0 -2
BITMAP
0000
0000
0020
0060
00C0
0180
0300
0600
0C00
1800
3000
6000
6000
3000
1800
0C00
0600
0300
0180
00C0
0060
0020
0000
0000
ENDCHAR

STARTCHAR =
ENCODING 61
SWIDTH 508 0
DWIDTH 12 0
BBX 12 24 0 -2
BITMAP
0000
0000
0000
0000
0000
0000
0000
0000
FFE0
FFE0
0000
0000
0000
0000
FFE0
FFE0
0000
0000
0000
0000
0000
0000
0000
0000
ENDCHAR

STARTCHAR >
ENCODING 62
SWIDTH 508 0
DWIDTH 12 0
BBX 12 24 0 -2
BITMAP
0000
0000
4000
6000
3000
1800
0C00
0600
0300
0180
00C0
0060
0060
00C0
0180
0300
0600
0C00
1800
3000
6000
4000
0000
0000
ENDCHAR

STARTCHAR ?
ENCODING 63
SWIDTH 508 0
DWIDTH 12 0
BBX 12 24 0 -2
BITMAP
0000
0000
0F00
30C0
6060
6060
7060
3060
00E0
00C0
0180
0300
0200
0400
0400
0400
0000
0000
0E00
0E00
0E00
0000
0000
0000
ENDCHAR

STARTCHAR @
ENCODING 64
SWIDTH 508 0
DWIDTH 12 0
BBX 12 24 0 -2
BITMAP
0000
0000
1F00
2080
60C0
4040
C060
8D20
9720
B320
B320
B320
B320
B320
B320
B760
9DC0
C000
4000
6020
20C0
1F00
0000
0000
ENDCHAR

STARTCHAR A
ENCODING 65
SWIDTH 508 0
DWIDTH 12 0
BBX 12 24 0 -2
BITMAP
0000
0000
0600
0600
0600
0B00
0B00
0B00
0980
1180
1180
1180
20C0
20C0
3FC0
20C0
4060
4060
4060
4060
E0F0
0000
0000
0000
ENDCHAR

STARTCHAR B
ENCODING 66
SWIDTH 508 0
DWIDTH 12 0
BBX 12 24 0 -2
BITMAP
0000
0000
FE00
6180
60C0
60C0
60C0
60C0
60C0
6080
6100
7E00
6180
60C0
6060
6060
6060
6060
60C0
6180
FE00
0000
0000
0000
ENDCHAR

STARTCHAR C
ENCODING 67
SWIDTH 508 0
DWIDTH 12 0
BBX 12 24 0 -2
BITMAP
0000
0000
0720
18E0
3060
3020
6000
6000
6000
6000
6000
6000
6000
6000
6000
6000
6000
3020
3020
18C0
0700
0000
0000
0000
ENDCHAR

STARTCHAR D
ENCODING 68
SWIDTH 508 0
DWIDTH 12 0
BBX 12 24 0 -2
BITMAP
0000
0000
FC00
6300
6180
60C0
60C0
6060
6060
6060
6060
6060
6060
6060
6060
6060
60C0
60C0
6180
6300
FC00
0000
0000
0000
ENDCHAR

STARTCHAR E
ENCODING 69
SWIDTH 508 0
DWIDTH 12 0
BBX 12 24 0 -2
BITMAP
0000
0000
FFC0
60C0
6040
6020
6000
6000
6100
6100
6300
7F00
6300
6100
6100
6000
6000
6020
6040
60C0
FFC0
0000
0000
0000
ENDCHAR

STARTCHAR F
ENCODING 70
SWIDTH 508 0
DWIDTH 12 0
BBX 12 24 0 -2
BITMAP
0000
0000
FFC0
60C0
6040
6020
6000
6000
6100
6100
6300
7F00
6300
6100
6100
6000
6000
6000
6000
6000
F000
0000
0000
0000
ENDCHAR

STARTCHAR G
ENCODING 71
SWIDTH 508 0
DWIDTH 12 0
BBX 12 24 0 -2
BITMAP
0000
0000
0E40
31C0
60C0
6040
C000
C000
C000
C000
C000
C000
C3E0
C0C0
C0C0
C0C0
C0C0
60C0
60C0
31C0
0E40
0000
0000
0000
ENDCHAR

STARTCHAR H
ENCODING 72
SWIDTH 508 0
DWIDTH 12 0
BBX 12 24 0 -2
BITMAP
0000
0000
F1E0
60C0
60C0
60C0
60C0
60C0
60C0
60C0
60C0
7FC0
60C0
60C0
60C0
60C0
60C0
60C0
60C0
60C0
F1E0
0000
0000
0000
ENDCHAR

STARTCHAR I
ENCODING 73
SWIDTH 508 0
DWIDTH 12 0
BBX 12 24 0 -2
BITMAP
0000
0000
3F00
0C00
0C00
0C00
0C00
0C00
0C00
0C00
0C00
0C00
0C00
0C00
0C00
0C00
0C00
0C00
0C00
0C00
3F00
0000
0000
0000
ENDCHAR

STARTCHAR J
ENCODING 74
SWIDTH 508 0
DWIDTH 12 0
BBX 12 24 0 -2
BITMAP
0000
0000
07E0
0180
0180
0180
0180
0180
0180
0180
0180
0180
0180
0180
0180
6180
E180
C180
C180
6300
1C00
0000
0000
0000
ENDCHAR

STARTCHAR K
ENCODING 75
SWIDTH 508 0
DWIDTH 12 0
BBX 12 24 0 -2
BITMAP
0000
0000
F1E0
6040
6080
6080
6100
6200
6200
6400
6800
7C00
7C00
6600
6600
6300
6300
6180
6180
60C0
F1E0
0000
0000
0000
ENDCHAR

STARTCHAR L
ENCODING 76
SWIDTH 508 0
DWIDTH 12 0
BBX 12 24 0 -2
BITMAP
0000
0000
F000
6000
6000
6000
6000
6000
6000
6000
6000
6000
6000
6000
6000
6000
6000
6020
6040
60C0
FFC0
0000
0000
0000
ENDCHAR

STARTCHAR M
ENCODING 77
SWIDTH 508 0
DWIDTH 12 0
BBX 12 24 0 -2
BITMAP
0000
0000
E070
6060
60E0
70E0
70E0
7160
5960
5960
5B60
4E60
4E60
4E60
4460
4460
4060
4060
4060
4060
E0F0
0000
0000
0000
ENDCHAR

STARTCHAR N
ENCODING 78
SWIDTH 508 0
DWIDTH 12 0
BBX 12 24 0 -2
BITMAP
0000
0000
E0E0
6040
7040
7040
7040
5840
5840
4C40
4C40
4640
4640
4340
4340
4340
41C0
41C0
40C0
40C0
E040
0000
0000
0000
ENDCHAR

STARTCHAR O
ENCODING 79
SWIDTH 508 0
DWIDTH 12 0
BBX 12 24 0 -2
BITMAP
0000
0000
1F00
60C0
4040
C060
C060
C060
C060
C060
C060
C060
C060
C060
C060
C060
C060
C060
4040
60C0
1F00
0000
0000
0000
ENDCHAR

STARTCHAR P
ENCODING 80
SWIDTH 508 0
DWIDTH 12 0
BBX 12 24 0 -2
BITMAP
0000
0000
FE00
6180
60C0
6060
6060
6060
6060
6060
60C0
6180
7E00
6000
6000
6000
6000
6000
6000
6000
F000
0000
0000
0000
ENDCHAR

STARTCHAR Q
ENCODING 81
SWIDTH 508 0
DWIDTH 12 0
BBX 12 24 0 -2
BITMAP
0000
0000
1E00
6180
4080
C0C0
C0C0
C0C0
C0C0
C0C0
C0C0
C0C0
C0C0
C0C0
C0C0
C0C0
CCC0
D2C0
6280
6380
1E00
0320
01E0
00C0
ENDCHAR

STARTCHAR R
ENCODING 82
SWIDTH 508 0
DWIDTH 12 0
BBX 12 24 0 -2
BITMAP
0000
0000
FE00
6180
6080
60C0
60C0
60C0
60C0
6080
6180
7E00
6200
6100
6180
6180
6180
6180
61A0
61A0
F0C0
0000
0000
0000
ENDCHAR

STARTCHAR S
ENCODING 83
SWIDTH 508 0
DWIDTH 12 0
BBX 12 24 0 -2
BITMAP
0000
0000
1E40
61C0
C0C0
C040
C000
C000
E000
7000
3E00
0F80
01C0
00E0
0060
0060
0060
8060
C0C0
E180
9E00
0000
0000
0000
ENDCHAR

STARTCHAR T
ENCODING 84
SWIDTH 508 0
DWIDTH 12 0
BBX 12 24 0 -2
BITMAP
0000
0000
FFC0
CCC0
8C40
8C40
8C40
0C00
0C00
0C00
0C00
0C00
0C00
0C00
0C00
0C00
0C00
0C00
0C00
0C00
1E00
0000
0000
0000
ENDCHAR

STARTCHAR U
ENCODING 85
SWIDTH 508 0
DWIDTH 12 0
BBX 12 24 0 -2
BITMAP
0000
0000
F0E0
6040
6040
6040
6040
6040
6040
6040
6040
6040
6040
6040
6040
6040
6040
6040
6040
3080
1F00
0000
0000
0000
ENDCHAR

STARTCHAR V
ENCODING 86
SWIDTH 508 0
DWIDTH 12 0
BBX 12 24 0 -2
BITMAP
0000
0000
F0E0
6040
6040
6040
6040
3080
3080
3080
3080
1900
1900
1900
1B00
0A00
0E00
0E00
0400
0400
0400
0000
0000
0000
ENDCHAR

STARTCHAR W
ENCODING 87
SWIDTH 508 0
DWIDTH 12 0
BBX 12 24 0 -2
BITMAP
0000
0000
E060
C020
C020
C020
C020
C020
C620
C620
C620
C620
C620
CF20
CB20
6B40
6B40
7140
71C0
3180
3180
0000
0000
0000
ENDCHAR

STARTCHAR X
ENCODING 88
SWIDTH 508 0
DWIDTH 12 0
BBX 12 24 0 -2
BITMAP
0000
0000
F0E0
6040
6040
3080
3080
1900
1900
0A00
0E00
0400
0E00
0A00
1300
1300
2180
2180
40C0
40C0
E1E0
0000
0000
0000
ENDCHAR

STARTCHAR Y
ENCODING 89
SWIDTH 508 0
DWIDTH 12 0
BBX 12 24 0 -2
BITMAP
0000
0000
F0E0
6040
6040
3080
3080
3080
1900
1900
0F00
0E00
0600
0600
0600
0600
0600
0600
0600
0600
1F80
0000
0000
0000
ENDCHAR

STARTCHAR Z
ENCODING 90
SWIDTH 508 0
DWIDTH 12 0
BBX 12 24 0 -2
BITMAP
0000
0000
7FE0
40C0
40C0
8180
0180
0300
0300
0600
0600
0600
0C00
0C00
1800
1800
3000
3020
6040
60C0
FFC0
0000
0000
0000
ENDCHAR

STARTCHAR [
ENCODING 91
SWIDTH 508 0
DWIDTH 12 0
BBX 12 24 0 -2
BITMAP
00C0
0380
0E00
0C00
0C00
0C00
0C00
0C00
0C00
0C00
0C00
0C00
0C00
0C00
0C00
0C00
0C00
0C00
0C00
0C00
0C00
0E00
0380
00C0
ENDCHAR

STARTCHAR \
ENCODING 92
SWIDTH 508 0
DWIDTH 12 0
BBX 12 24 0 -2
BITMAP
0000
8000
C000
4000
6000
2000
3000
1000
1800
0800
0C00
0400
0600
0200
0300
0100
0180
0080
00C0
0040
0060
0020
0020
0000
ENDCHAR

STARTCHAR ]
ENCODING 93
SWIDTH 508 0
DWIDTH 12 0
BBX 12 24 0 -2
BITMAP
6000
7800
1E00
0600
0600
0600
0600
0600
0600
0600
0600
0600
0600
0600
0600
0600
0600
0600
0600
0600
0600
1E00
7800
6000
ENDCHAR

STARTCHAR ^
ENCODING 94
SWIDTH 508 0
DWIDTH 12 0
BBX 12 24 0 -2
BITMAP
0400
0E00
1F00
3B80
60C0
C060
0000
0000
0000
0000
0000
0000
0000
0000
0000
0000
0000
0000
0000
0000
0000
0000
0000
0000
ENDCHAR

STARTCHAR _
ENCODING 95
SWIDTH 508 0
DWIDTH 12 0
BBX 12 24 0 -2
BITMAP
0000
0000
0000
0000
0000
0000
0000
0000
0000
0000
0000
0000
0000
0000
0000
0000
0000
0000
0000
0000
0000
0000
FFE0
FFE0
ENDCHAR

STARTCHAR `
ENCODING 96
SWIDTH 508 0
DWIDTH 12 0
BBX 12 24 0 -2
BITMAP
1800
3C00
1E00
0700
0180
0000
0000
0000
0000
0000
0000
0000
0000
0000
0000
0000
0000
0000
0000
0000
0000
0000
0000
0000
ENDCHAR

STARTCHAR a
ENCODING 97
SWIDTH 508 0
DWIDTH 12 0
BBX 12 24 0 -2
BITMAP
0000
0000
0000
0000
0000
0000
0000
0000
1C00
7300
4180
0180
0180
1F80
6180
C180
C180
C180
C1A0
63A0
3CC0
0000
0000
0000
ENDCHAR

STARTCHAR b
ENCODING 98
SWIDTH 508 0
DWIDTH 12 0
BBX 12 24 0 -2
BITMAP
0000
0000
6000
E000
6000
6000
6000
6000
6E00
7180
60C0
60C0
6060
6060
6060
6060
6060
60C0
60C0
7180
4E00
0000
0000
0000
ENDCHAR

STARTCHAR c
ENCODING 99
SWIDTH 508 0
DWIDTH 12 0
BBX 12 24 0 -2
BITMAP
0000
0000
0000
0000
0000
0000
0000
0000
0E00
3180
60C0
60C0
C000
C000
C000
C000
C000
6000
6040
3180
0E00
0000
0000
0000
ENDCHAR

STARTCHAR d
ENCODING 100
SWIDTH 508 0
DWIDTH 12 0
BBX 12 24 0 -2
BITMAP
0000
0000
00C0
03C0
00C0
00C0
00C0
00C0
0EC0
31C0
60C0
60C0
C0C0
C0C0
C0C0
C0C0
C0C0
60C0
60C0
31C0
0EE0
0000
0000
0000
ENDCHAR

STARTCHAR e
ENCODING 101
SWIDTH 508 0
DWIDTH 12 0
BBX 12 24 0 -2
BITMAP
0000
0000
0000
0000
0000
0000
0000
0000
0E00
3180
60C0
60E0
C060
FFE0
C000
C000
C000
6000
6020
30C0
0F00
0000
0000
0000
ENDCHAR

STARTCHAR f
ENCODING 102
SWIDTH 508 0
DWIDTH 12 0
BBX 12 24 0 -2
BITMAP
0000
0000
01C0
0660
0460
0C00
0C00
0C00
FFC0
0C00
0C00
0C00
0C00
0C00
0C00
0C00
0C00
0C00
0C00
0C00
3F00
0000
0000
0000
ENDCHAR

STARTCHAR g
ENCODING 103
SWIDTH 508 0
DWIDTH 12 0
BBX 12 24 0 -2
BITMAP
0000
0000
0000
0000
0000
0000
0000
0060
0EE0
3180
60C0
60C0
60C0
3180
0E00
1000
3000
1F00
27C0
40E0
C060
C060
60C0
1F00
ENDCHAR

STARTCHAR h
ENCODING 104
SWIDTH 508 0
DWIDTH 12 0
BBX 12 24 0 -2
BITMAP
0000
0000
6000
E000
6000
6000
6000
6000
6F00
7180
60C0
60C0
60C0
60C0
60C0
60C0
60C0
60C0
60C0
60C0
F1E0
0000
0000
0000
ENDCHAR

STARTCHAR i
ENCODING 105
SWIDTH 508 0
DWIDTH 12 0
BBX 12 24 0 -2
BITMAP
0000
0000
1C00
1C00
1C00
0000
0000
0000
3C00
0C00
0C00
0C00
0C00
0C00
0C00
0C00
0C00
0C00
0C00
0C00
3F00
0000
0000
0000
ENDCHAR

STARTCHAR j
ENCODING 106
SWIDTH 508 0
DWIDTH 12 0
BBX 12 24 0 -2
BITMAP
0000
0000
0700
0700
0700
0000
0000
0000
0F00
0300
0300
0300
0300
0300
0300
0300
0300
0300
0300
0300
0300
C300
C600
7C00
ENDCHAR

STARTCHAR k
ENCODING 107
SWIDTH 508 0
DWIDTH 12 0
BBX 12 24 0 -2
BITMAP
0000
0000
6000
E000
6000
6000
6000
6000
61E0
6080
6100
6200
6400
6800
7800
6C00
6600
6300
6180
60C0
F1E0
0000
0000
0000
ENDCHAR

STARTCHAR l
ENCODING 108
SWIDTH 508 0
DWIDTH 12 0
BBX 12 24 0 -2
BITMAP
0000
0000
0C00
3C00
0C00
0C00
0C00
0C00
0C00
0C00
0C00
0C00
0C00
0C00
0C00
0C00
0C00
0C00
0C00
0C00
3F00
0000
0000
0000
ENDCHAR

STARTCHAR m
ENCODING 109
SWIDTH 508 0
DWIDTH 12 0
BBX 12 24 0 -2
BITMAP
0000
0000
0000
0000
0000
0000
0000
0000
6DC0
F660
6660
6660
6660
6660
6660
6660
6660
6660
6660
6660
EF70
0000
0000
0000
ENDCHAR

STARTCHAR n
ENCODING 110
SWIDTH 508 0
DWIDTH 12 0
BBX 12 24 0 -2
BITMAP
0000
0000
0000
0000
0000
0000
0000
0000
6600
F980
60C0
60C0
60C0
60C0
60C0
60C0
60C0
60C0
60C0
60C0
F1E0
0000
0000
0000
ENDCHAR

STARTCHAR o
ENCODING 111
SWIDTH 508 0
DWIDTH 12 0
BBX 12 24 0 -2
BITMAP
0000
0000
0000
0000
0000
0000
0000
0000
0E00
3180
60C0
4040
C060
C060
C060
C060
C060
4040
60C0
3180
0E00
0000
0000
0000
ENDCHAR

STARTCHAR p
ENCODING 112
SWIDTH 508 0
DWIDTH 12 0
BBX 12 24 0 -2
BITMAP
0000
0000
0000
0000
0000
0000
0000
0000
6E00
F180
60C0
6060
6060
6060
6060
6060
60C0
7180
6E00
6000
6000
6000
6000
F000
ENDCHAR

STARTCHAR q
ENCODING 113
SWIDTH 508 0
DWIDTH 12 0
BBX 12 24 0 -2
BITMAP
0000
0000
0000
0000
0000
0000
0000
0000
0E40
31C0
60C0
C0C0
C0C0
C0C0
C0C0
C0C0
60C0
31C0
0EC0
00C0
00C0
00C0
00C0
01E0
ENDCHAR

STARTCHAR r
ENCODING 114
SWIDTH 508 0
DWIDTH 12 0
BBX 12 24 0 -2
BITMAP
0000
0000
0000
0000
0000
0000
0000
0000
31C0
F3E0
3660
3800
3000
3000
3000
3000
3000
3000
3000
3000
FC00
0000
0000
0000
ENDCHAR

STARTCHAR s
ENCODING 115
SWIDTH 508 0
DWIDTH 12 0
BBX 12 24 0 -2
BITMAP
0000
0000
0000
0000
0000
0000
0000
0000
1E40
61C0
C0C0
C040
E000
7C00
1F80
03C0
00E0
8060
C060
E0C0
9F00
0000
0000
0000
ENDCHAR

STARTCHAR t
ENCODING 116
SWIDTH 508 0
DWIDTH 12 0
BBX 12 24 0 -2
BITMAP
0000
0000
1800
1800
1800
1800
1800
1800
FF80
1800
1800
1800
1800
1800
1800
1800
1800
1820
1820
0C40
0780
0000
0000
0000
ENDCHAR

STARTCHAR u
ENCODING 117
SWIDTH 508 0
DWIDTH 12 0
BBX 12 24 0 -2
BITMAP
0000
0000
0000
0000
0000
0000
0000
0000
60C0
E1C0
60C0
60C0
60C0
60C0
60C0
60C0
60C0
60C0
60C0
33C0
1CE0
0000
0000
0000
ENDCHAR

STARTCHAR v
ENCODING 118
SWIDTH 508 0
DWIDTH 12 0
BBX 12 24 0 -2
BITMAP
0000
0000
0000
0000
0000
0000
0000
0000
F0E0
6040
6040
3080
3080
3080
1900
1900
1A00
0E00
0E00
0400
0400
0000
0000
0000
ENDCHAR

STARTCHAR w
ENCODING 119
SWIDTH 508 0
DWIDTH 12 0
BBX 12 24 0 -2
BITMAP
0000
0000
0000
0000
0000
0000
0000
0000
E060
C020
C020
C620
C620
C620
CE20
CB20
CB20
5160
71C0
60C0
2080
0000
0000
0000
ENDCHAR

STARTCHAR x
ENCODING 120
SWIDTH 508 0
DWIDTH 12 0
BBX 12 24 0 -2
BITMAP
0000
0000
0000
0000
0000
0000
0000
0000
F0E0
6040
3080
1900
1900
0E00
0400
0E00
1300
1300
2180
40C0
E1E0
0000
0000
0000
ENDCHAR

STARTCHAR y
ENCODING 121
SWIDTH 508 0
DWIDTH 12 0
BBX 12 24 0 -2
BITMAP
0000
0000
0000
0000
0000
0000
0000
0000
F0E0
6040
6040
3080
3080
1880
1900
0D00
0E00
0600
0200
0400
0400
C800
C800
7000
ENDCHAR

STARTCHAR z
ENCODING 122
SWIDTH 508 0
DWIDTH 12 0
BBX 12 24 0 -2
BITMAP
0000
0000
0000
0000
0000
0000
0000
0000
7FE0
60C0
4180
8180
0300
0600
0400
0C00
1800
3020
3040
6040
FFC0
0000
0000
0000
ENDCHAR

STARTCHAR {
ENCODING 123
SWIDTH 508 0
DWIDTH 12 0
BBX 12 24 0 -2
BITMAP
0040
0080
0080
0180
0180
0180
0180
0180
0180
0100
0200
0400
0200
0100
0180
0180
0180
0180
0180
0180
0180
0080
0080
0040
ENDCHAR

STARTCHAR |
ENCODING 124
SWIDTH 508 0
DWIDTH 12 0
BBX 12 24 0 -2
BITMAP
0600
0600
0600
0600
0600
0600
0600
0600
0600
0600
0600
0600
0600
0600
0600
0600
0600
0600
0600
0600
0600
0600
0600
0600
ENDCHAR

STARTCHAR }
ENCODING 125
SWIDTH 508 0
DWIDTH 12 0
BBX 12 24 0 -2
BITMAP
4000
2000
2000
3000
3000
3000
3000
3000
3000
1000
0800
0400
0800
1000
3000
3000
3000
3000
3000
3000
3000
2000
2000
4000
ENDCHAR

STARTCHAR ~
ENCODING 126
SWIDTH 508 0
DWIDTH 12 0
BBX 12 24 0 -2
BITMAP
3820
7C60
C7C0
8380
0000
0000
0000
0000
0000
0000
0000
0000
0000
0000
0000
0000
0000
0000
0000
0000
0000
0000
0000
0000
ENDCHAR

STARTCHAR C241
ENCODING 161
SWIDTH 508 0
DWIDTH 12 0
BBX 12 24 0 -2
BITMAP
0000
0000
0000
0E00
0E00
0E00
0000
0000
0400
0400
0400
0400
0400
0E00
0E00
0E00
0E00
0E00
0E00
0E00
0E00
0E00
0000
0000
ENDCHAR

STARTCHAR C242
ENCODING 162
SWIDTH 508 0
DWIDTH 12 0
BBX 12 24 0 -2
BITMAP
0000
0000
0400
0400
1F00
2480
6440
C460
C460
C460
C400
C400
C400
C400
C400
C460
C460
6440
2480
1F00
0400
0400
0000
0000
ENDCHAR

STARTCHAR C243
ENCODING 163
SWIDTH 508 0
DWIDTH 12 0
BBX 12 24 0 -2
BITMAP
0000
0000
0000
0000
0000
0000
0000
0380
0440
0C60
0C60
0C00
0C00
4C00
7FC0
0C00
0C00
0C00
3F80
6CE0
6CE0
3800
0000
0000
ENDCHAR

STARTCHAR C244
ENCODING 164
SWIDTH 508 0
DWIDTH 12 0
BBX 12 24 0 -2
BITMAP
0000
0000
0000
0000
0000
0000
8020
CE60
7FC0
3180
60C0
60C0
60C0
3180
7FC0
CE60
8020
0000
0000
0000
0000
0000
0000
0000
ENDCHAR

STARTCHAR C245
ENCODING 165
SWIDTH 508 0
DWIDTH 12 0
BBX 12 24 0 -2
BITMAP
0000
0000
0000
79E0
30C0
3080
1880
1980
1900
0D00
7DE0
0F00
0600
0600
7FE0
0600
0600
0600
0600
0F00
3FC0
0000
0000
0000
ENDCHAR

STARTCHAR C246
ENCODING 166
SWIDTH 508 0
DWIDTH 12 0
BBX 12 24 0 -2
BITMAP
0000
0000
0600
0600
0600
0600
0600
0600
0600
0600
0000
0000
0000
0600
0600
0600
0600
0600
0600
0600
0600
0000
0000
0000
ENDCHAR

STARTCHAR C247
ENCODING 167
SWIDTH 508 0
DWIDTH 12 0
BBX 12 24 0 -2
BITMAP
0000
0000
0F00
30C0
6060
6060
6000
3000
1F00
30C0
6060
6060
6060
30C0
0F80
00C0
0060
6060
6060
30C0
0F00
0000
0000
0000
ENDCHAR

STARTCHAR C250
ENCODING 168
SWIDTH 508 0
DWIDTH 12 0
BBX 12 24 0 -2
BITMAP
0000
0000
1980
1980
1980
0000
0000
0000
0000
0000
0000
0000
0000
0000
0000
0000
0000
0000
0000
0000
0000
0000
0000
0000
ENDCHAR

STARTCHAR C251
ENCODING 169
SWIDTH 508 0
DWIDTH 12 0
BBX 12 24 0 -2
BITMAP
0000
0000
0F00
30C0
6060
4020
CF30
98D0
B070
E070
E010
E010
E010
E010
B030
98D0
CF30
4020
6060
30C0
0F00
0000
0000
0000
ENDCHAR

STARTCHAR C252
ENCODING 170
SWIDTH 508 0
DWIDTH 12 0
BBX 12 24 0 -2
BITMAP
0000
0000
0700
1880
18C0
00C0
07C0
18C0
18C0
18C0
0740
0000
1FC0
0000
0000
0000
0000
0000
0000
0000
0000
0000
0000
0000
ENDCHAR

STARTCHAR C253
ENCODING 171
SWIDTH 508 0
DWIDTH 12 0
BBX 12 24 0 -2
BITMAP
0000
0000
0220
0660
0440
0CC0
0880
1980
1100
3300
2200
6600
6600
2200
3300
1100
1980
0880
0CC0
0440
0660
0220
0000
0000
ENDCHAR

STARTCHAR C254
ENCODING 172
SWIDTH 508 0
DWIDTH 12 0
BBX 12 24 0 -2
BITMAP
0000
0000
0000
0000
0000
0000
0000
0000
0000
0000
FFC0
FFC0
00C0
00C0
00C0
0000
0000
0000
0000
0000
0000
0000
0000
0000
ENDCHAR

STARTCHAR C255
ENCODING 173
SWIDTH 508 0
DWIDTH 12 0
BBX 12 24 0 -2
BITMAP
0000
0000
0000
0000
0000
0000
0000
0000
0000
0000
FFC0
FFC0
0000
0000
0000
0000
0000
0000
0000
0000
0000
0000
0000
0000
ENDCHAR

STARTCHAR C256
ENCODING 174
SWIDTH 508 0
DWIDTH 12 0
BBX 12 24 0 -2
BITMAP
0000
0000
0F00
30C0
6060
4020
DF30
B090
B0D0
B0D0
B0D0
BF90
B110
B090
B0D0
B0D0
F0F0
4020
6060
30C0
0F00
0000
0000
0000
ENDCHAR

STARTCHAR C257
ENCODING 175
SWIDTH 508 0
DWIDTH 12 0
BBX 12 24 0 -2
BITMAP
0000
0000
0000
FFE0
FFE0
0000
0000
0000
0000
0000
0000
0000
0000
0000
0000
0000
0000
0000
0000
0000
0000
0000
0000
0000
ENDCHAR

STARTCHAR C260
ENCODING 176
SWIDTH 508 0
DWIDTH 12 0
BBX 12 24 0 -2
BITMAP
0000
0000
0E00
1B00
3180
3180
1B00
0E00
0000
0000
0000
0000
0000
0000
0000
0000
0000
0000
0000
0000
0000
0000
0000
0000
ENDCHAR

STARTCHAR C261
ENCODING 177
SWIDTH 508 0
DWIDTH 12 0
BBX 12 24 0 -2
BITMAP
0000
0000
0000
0000
0000
0000
0000
0600
0600
0600
0600
7FE0
7FE0
0600
0600
0600
0600
0000
7FE0
7FE0
0000
0000
0000
0000
ENDCHAR

STARTCHAR C262
ENCODING 178
SWIDTH 508 0
DWIDTH 12 0
BBX 12 24 0 -2
BITMAP
0000
0000
0F00
1980
1980
0180
0300
0400
0880
1980
1F80
0000
0000
0000
0000
0000
0000
0000
0000
0000
0000
0000
0000
0000
ENDCHAR

STARTCHAR C263
ENCODING 179
SWIDTH 508 0
DWIDTH 12 0
BBX 12 24 0 -2
BITMAP
0000
0000
0F00
1980
1980
0180
0700
0180
1980
1980
0F00
0000
0000
0000
0000
0000
0000
0000
0000
0000
0000
0000
0000
0000
ENDCHAR

STARTCHAR C252
ENCODING 180
SWIDTH 508 0
DWIDTH 12 0
BBX 12 24 0 -2
BITMAP
0000
0000
0380
0700
0C00
1800
0000
0000
0000
0000
0000
0000
0000
0000
0000
0000
0000
0000
0000
0000
0000
0000
0000
0000
ENDCHAR

STARTCHAR C253
ENCODING 181
SWIDTH 508 0
DWIDTH 12 0
BBX 12 24 0 -2
BITMAP
0000
0000
0000
0000
0000
0000
0000
0000
0000
0000
0000
0000
0C60
0C60
0840
08C0
1080
1080
3180
2EA0
60E0
C000
C000
C000
ENDCHAR

STARTCHAR C254
ENCODING 182
SWIDTH 508 0
DWIDTH 12 0
BBX 12 24 0 -2
BITMAP
0000
0000
1FF0
3F40
7F40
7F40
FF40
FF40
FF40
7F40
3F40
0F40
0140
0140
0140
0140
0140
0140
0140
0140
0770
0000
0000
0000
ENDCHAR

STARTCHAR C255
ENCODING 183
SWIDTH 508 0
DWIDTH 12 0
BBX 12 24 0 -2
BITMAP
0000
0000
0000
0000
0000
0000
0000
0000
0000
0000
0E00
0E00
0E00
0000
0000
0000
0000
0000
0000
0000
0000
0000
0000
0000
ENDCHAR

STARTCHAR C256
ENCODING 184
SWIDTH 508 0
DWIDTH 12 0
BBX 12 24 0 -2
BITMAP
0000
0000
0000
0000
0000
0000
0000
0000
0000
0000
0000
0000
0000
0000
0000
0000
0000
0000
0000
0380
0300
0600
0C00
1000
ENDCHAR

STARTCHAR C257
ENCODING 185
SWIDTH 508 0
DWIDTH 12 0
BBX 12 24 0 -2
BITMAP
0000
0000
0600
0E00
1E00
0600
0600
0600
0600
0600
1F80
0000
0000
0000
0000
0000
0000
0000
0000
0000
0000
0000
0000
0000
ENDCHAR

STARTCHAR C260
ENCODING 186
SWIDTH 508 0
DWIDTH 12 0
BBX 12 24 0 -2
BITMAP
0000
0000
0700
0880
18C0
18C0
18C0
18C0
18C0
0880
0700
0000
1FC0
0000
0000
0000
0000
0000
0000
0000
0000
0000
0000
0000
ENDCHAR

STARTCHAR C261
ENCODING 187
SWIDTH 508 0
DWIDTH 12 0
BBX 12 24 0 -2
BITMAP
0000
0000
4400
6600
2200
3300
1100
1980
0880
0CC0
0440
0660
0660
0440
0CC0
0880
1980
1100
3300
2200
6600
4400
0000
0000
ENDCHAR

STARTCHAR C262
ENCODING 188
SWIDTH 508 0
DWIDTH 12 0
BBX 12 24 0 -2
BITMAP
0000
0000
3000
7000
B000
3000
3010
3030
3060
31C0
0300
0E00
1800
70C0
C1C0
82C0
04C0
0CC0
0FF0
00C0
00C0
0000
0000
0000
ENDCHAR

STARTCHAR C263
ENCODING 189
SWIDTH 508 0
DWIDTH 12 0
BBX 12 24 0 -2
BITMAP
0000
0000
3000
7000
B000
3000
3010
3030
3060
31C0
0300
0E00
1800
71E0
C330
8330
0030
0060
0180
0310
03F0
0000
0000
0000
ENDCHAR

STARTCHAR C252
ENCODING 190
SWIDTH 508 0
DWIDTH 12 0
BBX 12 24 0 -2
BITMAP
0000
0000
7800
CC00
8C00
0C00
3010
0C30
CC60
CDC0
7300
0E00
1800
70C0
C1C0
82C0
04C0
0CC0
0FF0
00C0
00C0
0000
0000
0000
ENDCHAR

STARTCHAR C253
ENCODING 191
SWIDTH 508 0
DWIDTH 12 0
BBX 12 24 0 -2
BITMAP
0000
0000
0700
0700
0700
0000
0000
0200
0200
0200
0400
0C00
1800
3000
7000
60C0
60E0
6060
6060
30C0
0F00
0000
0000
0000
ENDCHAR

STARTCHAR C254
ENCODING 192
SWIDTH 508 0
DWIDTH 12 0
BBX 12 24 0 -2
BITMAP
3800
0C00
0200
0000
0600
0600
0B00
0B00
0B00
0980
1180
1180
1180
20C0
20C0
3FC0
20C0
4060
4060
4060
E0F0
0000
0000
0000
ENDCHAR

STARTCHAR C255
ENCODING 193
SWIDTH 508 0
DWIDTH 12 0
BBX 12 24 0 -2
BITMAP
01C0
0300
0400
0000
0600
0600
0B00
0B00
0B00
0980
1180
1180
1180
20C0
20C0
3FC0
20C0
4060
4060
4060
E0F0
0000
0000
0000
ENDCHAR

STARTCHAR C256
ENCODING 194
SWIDTH 508 0
DWIDTH 12 0
BBX 12 24 0 -2
BITMAP
0600
1980
2040
0000
0600
0600
0B00
0B00
0B00
0980
1180
1180
1180
20C0
20C0
3FC0
20C0
4060
4060
4060
E0F0
0000
0000
0000
ENDCHAR

STARTCHAR C257
ENCODING 195
SWIDTH 508 0
DWIDTH 12 0
BBX 12 24 0 -2
BITMAP
1CC0
6700
0000
0000
0600
0600
0B00
0B00
0B00
0980
1180
1180
1180
20C0
20C0
3FC0
20C0
4060
4060
4060
E0F0
0000
0000
0000
ENDCHAR

STARTCHAR C260
ENCODING 196
SWIDTH 508 0
DWIDTH 12 0
BBX 12 24 0 -2
BITMAP
1980
1980
0000
0000
0600
0600
0B00
0B00
0B00
0980
1180
1180
1180
20C0
20C0
3FC0
20C0
4060
4060
4060
E0F0
0000
0000
0000
ENDCHAR

STARTCHAR C260
ENCODING 197
SWIDTH 508 0
DWIDTH 12 0
BBX 12 24 0 -2
BITMAP
0F00
1980
1980
0F00
0600
0600
0B00
0B00
0B00
0980
1180
1180
1180
20C0
20C0
3FC0
20C0
4060
4060
4060
E0F0
0000
0000
0000
ENDCHAR

STARTCHAR C261
ENCODING 198
SWIDTH 508 0
DWIDTH 12 0
BBX 12 24 0 -2
BITMAP
0000
0000
07F0
0730
0710
0B00
0B00
0B00
0B20
1320
1360
13E0
2360
2320
3F20
2300
4300
4300
4310
4330
E7F0
0000
0000
0000
ENDCHAR

STARTCHAR C262
ENCODING 199
SWIDTH 508 0
DWIDTH 12 0
BBX 12 24 0 -2
BITMAP
0000
0000
0720
18E0
3060
3020
6000
6000
6000
6000
6000
6000
6000
6000
6000
6000
3020
3020
18C0
0700
0200
0100
0100
0600
ENDCHAR

STARTCHAR C263
ENCODING 200
SWIDTH 508 0
DWIDTH 12 0
BBX 12 24 0 -2
BITMAP
3800
0C00
0200
0000
FFC0
60C0
6040
6020
6000
6100
6100
6300
7F00
6300
6100
6100
6000
6020
6040
60C0
FFC0
0000
0000
0000
ENDCHAR

STARTCHAR C252
ENCODING 201
SWIDTH 508 0
DWIDTH 12 0
BBX 12 24 0 -2
BITMAP
0380
0600
0800
0000
FFC0
60C0
6040
6020
6000
6100
6100
6300
7F00
6300
6100
6100
6000
6020
6040
60C0
FFC0
0000
0000
0000
ENDCHAR

STARTCHAR C253
ENCODING 202
SWIDTH 508 0
DWIDTH 12 0
BBX 12 24 0 -2
BITMAP
0400
1B00
60C0
0000
FFC0
60C0
6040
6020
6000
6100
6100
6300
7F00
6300
6100
6100
6000
6020
6040
60C0
FFC0
0000
0000
0000
ENDCHAR

STARTCHAR C255
ENCODING 203
SWIDTH 508 0
DWIDTH 12 0
BBX 12 24 0 -2
BITMAP
3300
3300
0000
0000
FFC0
60C0
6040
6020
6000
6100
6100
6300
7F00
6300
6100
6100
6000
6020
6040
60C0
FFC0
0000
0000
0000
ENDCHAR

STARTCHAR C256
ENCODING 204
SWIDTH 508 0
DWIDTH 12 0
BBX 12 24 0 -2
BITMAP
3800
0C00
0200
0000
3F00
0C00
0C00
0C00
0C00
0C00
0C00
0C00
0C00
0C00
0C00
0C00
0C00
0C00
0C00
0C00
3F00
0000
0000
0000
ENDCHAR

STARTCHAR C257
ENCODING 205
SWIDTH 508 0
DWIDTH 12 0
BBX 12 24 0 -2
BITMAP
0700
0C00
1000
0000
3F00
0C00
0C00
0C00
0C00
0C00
0C00
0C00
0C00
0C00
0C00
0C00
0C00
0C00
0C00
0C00
3F00
0000
0000
0000
ENDCHAR

STARTCHAR C260
ENCODING 206
SWIDTH 508 0
DWIDTH 12 0
BBX 12 24 0 -2
BITMAP
0C00
1200
2100
0000
3F00
0C00
0C00
0C00
0C00
0C00
0C00
0C00
0C00
0C00
0C00
0C00
0C00
0C00
0C00
0C00
3F00
0000
0000
0000
ENDCHAR

STARTCHAR C261
ENCODING 207
SWIDTH 508 0
DWIDTH 12 0
BBX 12 24 0 -2
BITMAP
3300
3300
0000
0000
3F00
0C00
0C00
0C00
0C00
0C00
0C00
0C00
0C00
0C00
0C00
0C00
0C00
0C00
0C00
0C00
3F00
0000
0000
0000
ENDCHAR

STARTCHAR C262
ENCODING 208
SWIDTH 508 0
DWIDTH 12 0
BBX 12 24 0 -2
BITMAP
0000
0000
FC00
6300
6180
60C0
60C0
6060
6060
6060
6060
FC60
6060
6060
6060
6060
60C0
60C0
6180
6300
FC00
0000
0000
0000
ENDCHAR

STARTCHAR C263
ENCODING 209
SWIDTH 508 0
DWIDTH 12 0
BBX 12 24 0 -2
BITMAP
1CC0
6700
0000
0000
E0E0
6040
7040
7040
5840
5840
5840
4C40
4C40
4640
4640
4340
4340
41C0
41C0
40C0
E0C0
0000
0000
0000
ENDCHAR

STARTCHAR C252
ENCODING 210
SWIDTH 508 0
DWIDTH 12 0
BBX 12 24 0 -2
BITMAP
3800
0C00
0200
0000
1F00
60C0
4040
C060
C060
C060
C060
C060
C060
C060
C060
C060
C060
C060
4040
60C0
1F00
0000
0000
0000
ENDCHAR

STARTCHAR C253
ENCODING 211
SWIDTH 508 0
DWIDTH 12 0
BBX 12 24 0 -2
BITMAP
0380
0600
0800
0000
1F00
60C0
4040
C060
C060
C060
C060
C060
C060
C060
C060
C060
C060
C060
4040
60C0
1F00
0000
0000
0000
ENDCHAR

STARTCHAR C254
ENCODING 212
SWIDTH 508 0
DWIDTH 12 0
BBX 12 24 0 -2
BITMAP
0400
1B00
60C0
0000
1F00
60C0
4040
C060
C060
C060
C060
C060
C060
C060
C060
C060
C060
C060
4040
60C0
1F00
0000
0000
0000
ENDCHAR

STARTCHAR C255
ENCODING 213
SWIDTH 508 0
DWIDTH 12 0
BBX 12 24 0 -2
BITMAP
1CC0
6700
0000
0000
1F00
60C0
4040
C060
C060
C060
C060
C060
C060
C060
C060
C060
C060
C060
4040
60C0
1F00
0000
0000
0000
ENDCHAR

STARTCHAR C256
ENCODING 214
SWIDTH 508 0
DWIDTH 12 0
BBX 12 24 0 -2
BITMAP
3180
3180
0000
0000
1F00
60C0
4040
C060
C060
C060
C060
C060
C060
C060
C060
C060
C060
C060
4040
60C0
1F00
0000
0000
0000
ENDCHAR

STARTCHAR C257
ENCODING 215
SWIDTH 508 0
DWIDTH 12 0
BBX 12 24 0 -2
BITMAP
0000
0000
0000
0000
0000
0000
0000
C060
60C0
3180
1B00
0E00
0E00
1B00
3180
60C0
C060
0000
0000
0000
0000
0000
0000
0000
ENDCHAR

STARTCHAR C260
ENCODING 216
SWIDTH 508 0
DWIDTH 12 0
BBX 12 24 0 -2
BITMAP
0000
0040
1F40
60C0
40C0
C160
C160
C260
C260
C260
C460
C460
C860
C860
C860
D060
D060
E060
6040
60C0
5F00
4000
0000
0000
ENDCHAR

STARTCHAR C261
ENCODING 217
SWIDTH 508 0
DWIDTH 12 0
BBX 12 24 0 -2
BITMAP
1C00
0600
0100
0000
F0E0
6040
6040
6040
6040
6040
6040
6040
6040
6040
6040
6040
6040
6040
6040
3080
1F00
0000
0000
0000
ENDCHAR

STARTCHAR C262
ENCODING 218
SWIDTH 508 0
DWIDTH 12 0
BBX 12 24 0 -2
BITMAP
0380
0600
0800
0000
F0E0
6040
6040
6040
6040
6040
6040
6040
6040
6040
6040
6040
6040
6040
6040
3080
1F00
0000
0000
0000
ENDCHAR

STARTCHAR C263
ENCODING 219
SWIDTH 508 0
DWIDTH 12 0
BBX 12 24 0 -2
BITMAP
0400
1B00
60C0
0000
F0E0
6040
6040
6040
6040
6040
6040
6040
6040
6040
6040
6040
6040
6040
6040
3080
1F00
0000
0000
0000
ENDCHAR

STARTCHAR C252
ENCODING 220
SWIDTH 508 0
DWIDTH 12 0
BBX 12 24 0 -2
BITMAP
3180
3180
0000
0000
F0E0
6040
6040
6040
6040
6040
6040
6040
6040
6040
6040
6040
6040
6040
6040
3080
1F00
0000
0000
0000
ENDCHAR

STARTCHAR C253
ENCODING 221
SWIDTH 508 0
DWIDTH 12 0
BBX 12 24 0 -2
BITMAP
0380
0600
0800
0000
F0E0
6040
6040
3080
3080
3080
1900
1900
0F00
0E00
0600
0600
0600
0600
0600
0600
1F80
0000
0000
0000
ENDCHAR

STARTCHAR C254
ENCODING 222
SWIDTH 508 0
DWIDTH 12 0
BBX 12 24 0 -2
BITMAP
0000
0000
F000
6000
6000
7E00
6180
60C0
6060
6060
6060
6060
6060
60C0
6180
7E00
6000
6000
6000
6000
6000
F000
0000
0000
ENDCHAR

STARTCHAR C255
ENCODING 223
SWIDTH 508 0
DWIDTH 12 0
BBX 12 24 0 -2
BITMAP
0000
0000
3E00
4180
C0C0
C0C0
C0C0
C0C0
C0C0
C080
C100
CE00
C180
C0C0
C060
C060
C060
C060
C0C0
C180
CE00
0000
0000
0000
ENDCHAR

STARTCHAR C256
ENCODING 224
SWIDTH 508 0
DWIDTH 12 0
BBX 12 24 0 -2
BITMAP
0000
0000
3800
0C00
0200
0000
0000
0000
1C00
7300
4180
0180
0180
1F80
6180
C180
C180
C180
C1A0
63A0
3CC0
0000
0000
0000
ENDCHAR

STARTCHAR C257
ENCODING 225
SWIDTH 508 0
DWIDTH 12 0
BBX 12 24 0 -2
BITMAP
0000
0000
0700
0C00
1000
0000
0000
0000
1C00
7300
4180
0180
0180
1F80
6180
C180
C180
C180
C1A0
63A0
3CC0
0000
0000
0000
ENDCHAR

STARTCHAR C260
ENCODING 226
SWIDTH 508 0
DWIDTH 12 0
BBX 12 24 0 -2
BITMAP
0000
0000
0C00
1200
3300
6180
0000
0000
1C00
7300
4180
0180
0180
1F80
7180
C180
C180
C180
C1A0
63A0
3CC0
0000
0000
0000
ENDCHAR

STARTCHAR C261
ENCODING 227
SWIDTH 508 0
DWIDTH 12 0
BBX 12 24 0 -2
BITMAP
0000
0000
0000
3980
6700
0000
0000
0000
1C00
7300
4180
0180
0180
1F80
6180
C180
C180
C180
C1A0
63A0
3CC0
0000
0000
0000
ENDCHAR

STARTCHAR C262
ENCODING 228
SWIDTH 508 0
DWIDTH 12 0
BBX 12 24 0 -2
BITMAP
0000
0000
0000
0000
3300
3300
0000
0000
1C00
7300
4180
0180
0180
1F80
6180
C180
C180
C180
C1A0
63A0
3CC0
0000
0000
0000
ENDCHAR

STARTCHAR C263
ENCODING 229
SWIDTH 508 0
DWIDTH 12 0
BBX 12 24 0 -2
BITMAP
0000
0000
1E00
3300
3300
1E00
0000
0000
1C00
7300
4180
0180
0180
1F80
6180
C180
C180
C180
C1A0
63A0
3CC0
0000
0000
0000
ENDCHAR

STARTCHAR C252
ENCODING 230
SWIDTH 508 0
DWIDTH 12 0
BBX 12 24 0 -2
BITMAP
0000
0000
0000
0000
0000
0000
0000
0000
3180
4A40
C460
C460
0460
1FE0
2400
4400
C400
C460
C460
CA60
71C0
0000
0000
0000
ENDCHAR

STARTCHAR C253
ENCODING 231
SWIDTH 508 0
DWIDTH 12 0
BBX 12 24 0 -2
BITMAP
0000
0000
0000
0000
0000
0000
0000
0720
18E0
3060
6020
6000
6000
6000
6000
6000
6020
3020
18C0
0700
0200
0100
0100
0600
ENDCHAR

STARTCHAR C254
ENCODING 232
SWIDTH 508 0
DWIDTH 12 0
BBX 12 24 0 -2
BITMAP
0000
0000
3800
0C00
0200
0000
0000
0000
0E00
3180
60C0
60E0
C060
FFE0
C000
C000
C000
6000
6020
30C0
0F00
0000
0000
0000
ENDCHAR

STARTCHAR C255
ENCODING 233
SWIDTH 508 0
DWIDTH 12 0
BBX 12 24 0 -2
BITMAP
0000
0000
0700
0C00
1000
0000
0000
0000
0E00
3180
60C0
60E0
C060
FFE0
C000
C000
C000
6000
6020
38C0
0F00
0000
0000
0000
ENDCHAR

STARTCHAR C256
ENCODING 234
SWIDTH 508 0
DWIDTH 12 0
BBX 12 24 0 -2
BITMAP
0000
0000
0E00
1100
3180
60C0
0000
0000
0E00
3180
60C0
60E0
C060
FFE0
C000
C000
C000
6000
6020
30C0
0F00
0000
0000
0000
ENDCHAR

STARTCHAR C257
ENCODING 235
SWIDTH 508 0
DWIDTH 12 0
BBX 12 24 0 -2
BITMAP
0000
0000
0000
0000
3180
3180
0000
0000
0E00
3180
60C0
60E0
C060
FFE0
C000
C000
C000
6000
6020
30C0
0F00
0000
0000
0000
ENDCHAR

STARTCHAR C260
ENCODING 236
SWIDTH 508 0
DWIDTH 12 0
BBX 12 24 0 -2
BITMAP
0000
0000
3800
0C00
0200
0000
0000
0000
3C00
0C00
0C00
0C00
0C00
0C00
0C00
0C00
0C00
0C00
0C00
0C00
FFC0
0000
0000
0000
ENDCHAR

STARTCHAR C261
ENCODING 237
SWIDTH 508 0
DWIDTH 12 0
BBX 12 24 0 -2
BITMAP
0000
0000
0700
0C00
1000
0000
0000
0000
3C00
0C00
0C00
0C00
0C00
0C00
0C00
0C00
0C00
0C00
0C00
0C00
FFC0
0000
0000
0000
ENDCHAR

STARTCHAR C262
ENCODING 238
SWIDTH 508 0
DWIDTH 12 0
BBX 12 24 0 -2
BITMAP
0000
0000
0C00
1200
3300
6180
0000
0000
3C00
0C00
0C00
0C00
0C00
0C00
0C00
0C00
0C00
0C00
0C00
0C00
FFC0
0000
0000
0000
ENDCHAR

STARTCHAR C263
ENCODING 239
SWIDTH 508 0
DWIDTH 12 0
BBX 12 24 0 -2
BITMAP
0000
0000
0000
0000
3300
3300
0000
0000
3C00
0C00
0C00
0C00
0C00
0C00
0C00
0C00
0C00
0C00
0C00
0C00
FFC0
0000
0000
0000
ENDCHAR

STARTCHAR C252
ENCODING 240
SWIDTH 508 0
DWIDTH 12 0
BBX 12 24 0 -2
BITMAP
0000
0000
0000
3180
3D80
0700
0700
0D80
3080
00C0
0F40
19C0
3060
6060
6060
6060
6060
6060
6060
30C0
1F00
0000
0000
0000
ENDCHAR

STARTCHAR C253
ENCODING 241
SWIDTH 508 0
DWIDTH 12 0
BBX 12 24 0 -2
BITMAP
0000
0000
0000
3980
6700
0000
0000
0000
6600
F980
60C0
60C0
60C0
60C0
60C0
60C0
60C0
60C0
60C0
60C0
F1E0
0000
0000
0000
ENDCHAR

STARTCHAR C254
ENCODING 242
SWIDTH 508 0
DWIDTH 12 0
BBX 12 24 0 -2
BITMAP
0000
0000
3800
0C00
0200
0000
0000
0000
0E00
3180
60C0
4040
C060
C060
C060
C060
C060
4040
60C0
3180
0E00
0000
0000
0000
ENDCHAR

STARTCHAR C255
ENCODING 243
SWIDTH 508 0
DWIDTH 12 0
BBX 12 24 0 -2
BITMAP
0000
0000
0700
0C00
1000
0000
0000
0000
0E00
3180
60C0
4040
C060
C060
C060
C060
C060
4040
60C0
3180
0E00
0000
0000
0000
ENDCHAR

STARTCHAR C256
ENCODING 244
SWIDTH 508 0
DWIDTH 12 0
BBX 12 24 0 -2
BITMAP
0000
0000
0400
0A00
1B00
3180
0000
0000
0E00
3180
60C0
4040
C060
C060
C060
C060
C060
4040
60C0
3180
0E00
0000
0000
0000
ENDCHAR

STARTCHAR C257
ENCODING 245
SWIDTH 508 0
DWIDTH 12 0
BBX 12 24 0 -2
BITMAP
0000
0000
0000
0000
1CC0
3380
0000
0000
0E00
3180
60C0
4040
C060
C060
C060
C060
C060
4040
60C0
3180
0E00
0000
0000
0000
ENDCHAR

STARTCHAR C260
ENCODING 246
SWIDTH 508 0
DWIDTH 12 0
BBX 12 24 0 -2
BITMAP
0000
0000
0000
0000
3180
3180
0000
0000
0E00
3180
60C0
4040
C060
C060
C060
C060
C060
4040
60C0
3180
0E00
0000
0000
0000
ENDCHAR

STARTCHAR C261
ENCODING 247
SWIDTH 508 0
DWIDTH 12 0
BBX 12 24 0 -2
BITMAP
0000
0000
0000
0000
0000
0000
0000
0C00
0C00
0000
0000
FFC0
FFC0
0000
0000
0C00
0C00
0000
0000
0000
0000
0000
0000
0000
ENDCHAR

STARTCHAR C262
ENCODING 248
SWIDTH 508 0
DWIDTH 12 0
BBX 12 24 0 -2
BITMAP
0000
0000
0000
0000
0000
0000
0000
0000
0E60
31C0
6080
41C0
C360
C660
C460
CC60
D860
7040
20C0
7180
CE00
0000
0000
0000
ENDCHAR

STARTCHAR C263
ENCODING 249
SWIDTH 508 0
DWIDTH 12 0
BBX 12 24 0 -2
BITMAP
0000
0000
3800
0C00
0200
0000
0000
0000
60C0
E1C0
60C0
60C0
60C0
60C0
60C0
60C0
60C0
60C0
60C0
33C0
1CE0
0000
0000
0000
ENDCHAR

STARTCHAR C252
ENCODING 250
SWIDTH 508 0
DWIDTH 12 0
BBX 12 24 0 -2
BITMAP
0000
0000
0700
0C00
1000
0000
0000
0000
60C0
E1C0
60C0
60C0
60C0
60C0
60C0
60C0
60C0
60C0
60C0
33C0
1CE0
0000
0000
0000
ENDCHAR

STARTCHAR C253
ENCODING 251
SWIDTH 508 0
DWIDTH 12 0
BBX 12 24 0 -2
BITMAP
0000
0000
0400
0A00
1B00
3180
0000
0000
60C0
E1C0
60C0
60C0
60C0
60C0
60C0
60C0
60C0
60C0
60C0
33C0
1CE0
0000
0000
0000
ENDCHAR

STARTCHAR C254
ENCODING 252
SWIDTH 508 0
DWIDTH 12 0
BBX 12 24 0 -2
BITMAP
0000
0000
0000
0000
3300
3300
0000
0000
60C0
E1C0
60C0
60C0
60C0
60C0
60C0
60C0
60C0
60C0
60C0
33C0
1CE0
0000
0000
0000
ENDCHAR

STARTCHAR C255
ENCODING 253
SWIDTH 508 0
DWIDTH 12 0
BBX 12 24 0 -2
BITMAP
0000
0000
0700
0C00
1000
0000
0000
0000
F0E0
6040
6040
3080
3080
1880
1900
0D00
0E00
0600
0200
0400
0400
C800
C800
7000
ENDCHAR

STARTCHAR C256
ENCODING 254
SWIDTH 508 0
DWIDTH 12 0
BBX 12 24 0 -2
BITMAP
0000
0000
0000
E000
6000
6000
6000
6000
6E00
7180
60C0
6060
6060
6060
6060
6060
60C0
7180
6E00
6000
6000
6000
6000
F000
ENDCHAR

STARTCHAR C257
ENCODING 255
SWIDTH 508 0
DWIDTH 12 0
BBX 12 24 0 -2
BITMAP
0000
0000
0000
0000
1980
1980
0000
0000
F0E0
6040
6040
3080
3080
1880
1900
0D00
0E00
0600
0200
0400
0400
C800
C800
7000
ENDCHAR

ENDFONT
